<svg xmlns="http://www.w3.org/2000/svg" viewBox="0 0 64 64" role="img" aria-labelledby="title">
  <title>Casa Weekly smart pot</title>
  <rect width="64" height="64" rx="14" fill="#ff5a5f" />
  <g fill="none" stroke="#fffaf5" stroke-linecap="round" stroke-linejoin="round" stroke-width="4">
    <path d="M18 31h28l-2.2 14.4A6.5 6.5 0 0 1 37.4 51H26.6a6.5 6.5 0 0 1-6.4-5.6L18 31Z" />
    <path d="M14 31h36" />
    <path d="M23 25h18" />
    <path d="M28 21h8" />
    <path d="M23 14c-2 2-2 4 0 6" />
    <path d="M32 11c-2.4 2.5-2.4 5 0 7.5" />
    <path d="M41 14c2 2 2 4 0 6" />
    <path d="M32 36v8" />
    <path d="M28 40h8" />
  </g>
</svg>
