<svg xmlns="http://www.w3.org/2000/svg" viewBox="0 0 512 512" role="img" aria-labelledby="title">
  <title>Casa Weekly smart pot</title>
  <rect width="512" height="512" rx="112" fill="#ff5a5f" />
  <g fill="none" stroke="#fffaf5" stroke-linecap="round" stroke-linejoin="round" stroke-width="32">
    <path d="M144 248h224l-18 115a52 52 0 0 1-51 45h-86a52 52 0 0 1-51-45l-18-115Z" />
    <path d="M112 248h288" />
    <path d="M184 200h144" />
    <path d="M224 168h64" />
    <path d="M184 112c-16 16-16 32 0 48" />
    <path d="M256 88c-19 20-19 40 0 60" />
    <path d="M328 112c16 16 16 32 0 48" />
    <path d="M256 288v64" />
    <path d="M224 320h64" />
  </g>
</svg>
